<svg xmlns="http://www.w3.org/2000/svg" version="1.1" xmlns:xlink="http://www.w3.org/1999/xlink" width="1000" height="1000"><g clip-path="url(#SvgjsClipPath1001)"><rect width="1000" height="1000" fill="#ffffff"></rect><g transform="matrix(3.5,0,0,3.5,150,150)"><svg xmlns="http://www.w3.org/2000/svg" version="1.1" xmlns:xlink="http://www.w3.org/1999/xlink" viewBox="0 0 200 200" width="200" height="200"><rect width="200" height="200" fill="url('#gradient')"></rect><defs><linearGradient id="gradient" gradientTransform="rotate(231 0.5 0.5)"><stop offset="0%" stop-color="#333333"></stop><stop offset="100%" stop-color="#666666"></stop></linearGradient><clipPath id="SvgjsClipPath1001"><rect width="1000" height="1000" x="0" y="0" rx="350" ry="350"></rect></clipPath></defs><g><g fill="#0099ff" transform="matrix(4.5612472160356345,0,0,4.5612472160356345,6.355369680044646,123.15145054585685)" stroke="#1087ab" stroke-width="0"><path d="M12.71-7.60L12.71-1.76Q11.92-0.88 10.40-0.34Q8.88 0.20 7.06 0.20L7.06 0.20Q4.27 0.20 2.60-1.51Q0.93-3.22 0.81-6.27L0.81-6.27L0.80-7.50Q0.80-9.60 1.54-11.17Q2.29-12.73 3.67-13.58Q5.05-14.42 6.87-14.42L6.87-14.42Q9.52-14.42 10.99-13.21Q12.46-11.99 12.71-9.58L12.71-9.58L9.40-9.58Q9.23-10.77 8.64-11.28Q8.06-11.79 6.98-11.79L6.98-11.79Q5.69-11.79 4.99-10.69Q4.29-9.60 4.28-7.57L4.28-7.57L4.28-6.71Q4.28-4.58 5.00-3.51Q5.73-2.44 7.29-2.44L7.29-2.44Q8.63-2.44 9.29-3.04L9.29-3.04L9.29-5.24L6.90-5.24L6.90-7.60L12.71-7.60ZM17.11-10.57L18.78-4.61L20.54-10.57L24.06-10.57L19.76 1.77L19.57 2.22Q18.65 4.27 16.33 4.27L16.33 4.27Q15.68 4.27 14.97 4.07L14.97 4.07L14.97 1.72L15.40 1.72Q16.09 1.72 16.46 1.52Q16.83 1.32 17.00 0.80L17.00 0.80L17.27 0.10L13.59-10.57L17.11-10.57ZM24.94-10.57L28.03-10.57L28.13-9.33Q29.26-10.76 31.15-10.76L31.15-10.76Q33.15-10.76 33.86-9.17L33.86-9.17Q34.93-10.76 36.96-10.76L36.96-10.76Q40.18-10.76 40.26-6.88L40.26-6.88L40.26 0L36.96 0L36.96-6.67Q36.96-7.48 36.69-7.85Q36.42-8.22 35.69-8.22L35.69-8.22Q34.72-8.22 34.24-7.35L34.24-7.35L34.25-7.22L34.25 0L30.95 0L30.95-6.65Q30.95-7.48 30.68-7.85Q30.42-8.22 29.68-8.22L29.68-8.22Q28.73-8.22 28.23-7.35L28.23-7.35L28.23 0L24.94 0L24.94-10.57Z"></path></g></g></svg></g></g></svg>